<svg id="レイヤー_1" data-name="レイヤー 1" xmlns="http://www.w3.org/2000/svg" viewBox="0 0 284.26 527.6"><defs><style>.cls-1{fill:#fff;}.cls-2{fill:none;}</style></defs><rect class="cls-1" x="30.08" y="491.22" width="4.55" height="36.38"/><rect class="cls-1" x="191.03" y="491.22" width="4.55" height="36.38"/><polygon class="cls-1" points="41.97 495.76 51.08 495.76 51.08 527.6 55.62 527.6 55.62 495.76 64.72 495.76 64.72 491.22 41.97 491.22 41.97 495.76"/><path class="cls-1" d="M216.71,640a14.31,14.31,0,0,0,0,10.81,9,9,0,0,0,8.06,4.83h4.5a4.52,4.52,0,0,1,4,2.41c.38.73.52,1.2.52,3.28s-.14,2.54-.52,3.26a4.53,4.53,0,0,1-4,2.42H215.65v4.54h13.62a9,9,0,0,0,8.06-4.83,14.28,14.28,0,0,0,0-10.8,9,9,0,0,0-8.06-4.82l-4.5,0a4.49,4.49,0,0,1-4.05-2.41c-.38-.72-.52-1.19-.52-3.27s.14-2.54.52-3.26a4.51,4.51,0,0,1,4.05-2.43h13.62v-4.54H224.77A9,9,0,0,0,216.71,640Z" transform="translate(-146.12 -143.95)"/><polygon class="cls-1" points="220.54 491.22 208.32 505.6 208.32 491.22 203.77 491.22 203.77 527.6 208.32 527.6 208.32 513.22 220.54 527.6 226.51 527.6 211.05 509.41 226.51 491.22 220.54 491.22"/><polygon class="cls-1" points="279.71 491.22 279.71 517.68 266.07 491.22 261.52 491.22 261.52 527.6 266.07 527.6 266.07 501.15 279.71 527.6 279.71 527.6 279.71 527.6 279.71 527.6 284.26 527.6 284.26 527.6 284.26 491.22 279.71 491.22"/><path class="cls-1" d="M264,662.43a4.5,4.5,0,0,1-2.41,4.05c-.72.38-1.34.53-3.42.53h-2c-2.07,0-2.7-.15-3.42-.53a4.55,4.55,0,0,1-2.42-4.05V635.17h-4.54v27.26a9,9,0,0,0,4.83,8.06,10.61,10.61,0,0,0,5.55,1.06h2a10.53,10.53,0,0,0,5.55-1.06,9,9,0,0,0,4.84-8.06V635.17H264Z" transform="translate(-146.12 -143.95)"/><path class="cls-1" d="M311.06,636.23a9.08,9.08,0,0,0-4.83,8.07v18.13a9.06,9.06,0,0,0,4.83,8.06,10.69,10.69,0,0,0,5.56,1.06H329V667H316.62c-2.08,0-2.7-.14-3.42-.52a4.55,4.55,0,0,1-2.42-4.05v-6.79H329V651.1H310.78v-6.8a4.57,4.57,0,0,1,2.42-4c.72-.39,1.34-.53,3.42-.53H329v-4.54H316.62A10.79,10.79,0,0,0,311.06,636.23Z" transform="translate(-146.12 -143.95)"/><path class="cls-1" d="M168.86,644.26a9.09,9.09,0,0,0-9.11-9.09H146.12v36.38h4.54V653.36h0l12.66,18.19h5.54l-12.65-18.19h3.54a9.1,9.1,0,0,0,9.11-9.1m-18.2,4.56v-9.1h9.09a4.56,4.56,0,1,1,0,9.11Z" transform="translate(-146.12 -143.95)"/><path class="cls-1" d="M395.35,636.23a10.63,10.63,0,0,0-5.55-1.06h-2a10.61,10.61,0,0,0-5.55,1.06,9,9,0,0,0-4.84,8.06v27.26H382V655.64h13.64v15.91h4.56V644.3a9.06,9.06,0,0,0-4.84-8.07M382,651.08v-6.79a4.5,4.5,0,0,1,2.42-4c.72-.39,1.34-.54,3.42-.54h2c2.08,0,2.7.14,3.42.53a4.55,4.55,0,0,1,2.41,4v6.78Z" transform="translate(-146.12 -143.95)"/><polygon class="cls-1" points="152.66 491.22 147.7 491.22 141.29 505.97 134.88 491.22 134.47 491.22 129.92 491.22 129.92 527.6 134.47 527.6 134.47 511.89 134.47 501.69 138.81 511.69 138.81 511.69 138.81 511.69 143.77 511.69 143.77 511.69 143.77 511.69 148.11 501.69 148.11 516.38 148.11 527.6 152.66 527.6 152.66 491.22 152.66 491.22 152.66 491.22 152.66 491.22"/><path class="cls-1" d="M430.38,257.67A113.71,113.71,0,0,0,316.52,144H146.12V598.79H203V371.37h0L361.13,598.79h69.25L272.23,371.37h44.29a113.71,113.71,0,0,0,113.86-113.7M316.52,200.81a56.85,56.85,0,1,1,0,113.7H203V200.81Z" transform="translate(-146.12 -143.95)"/><polygon class="cls-2" points="170.56 0 0 0 0 197.85 0 527.6 284.26 527.6 284.26 197.85 284.26 131.9 284.26 0 170.56 0"/></svg>